<svg width="26" height="29" viewBox="0 0 26 29" fill="none" xmlns="http://www.w3.org/2000/svg">
<g filter="url(#filter0_d_101_241)">
<path d="M10.75 1.5H15.25C15.4489 1.5 15.6397 1.42098 15.7803 1.28033C15.921 1.13968 16 0.948912 16 0.75C16 0.551088 15.921 0.360322 15.7803 0.21967C15.6397 0.0790176 15.4489 0 15.25 0L10.75 0C10.5511 0 10.3603 0.0790176 10.2197 0.21967C10.079 0.360322 10 0.551088 10 0.75C10 0.948912 10.079 1.13968 10.2197 1.28033C10.3603 1.42098 10.5511 1.5 10.75 1.5Z" fill="black"/>
<path d="M13 3C11.22 3 9.47991 3.52784 7.99987 4.51677C6.51983 5.50571 5.36628 6.91131 4.68509 8.55585C4.0039 10.2004 3.82567 12.01 4.17294 13.7558C4.5202 15.5016 5.37737 17.1053 6.63604 18.364C7.89472 19.6226 9.49836 20.4798 11.2442 20.8271C12.99 21.1743 14.7996 20.9961 16.4442 20.3149C18.0887 19.6337 19.4943 18.4802 20.4832 17.0001C21.4722 15.5201 22 13.78 22 12C21.9973 9.61388 21.0482 7.32626 19.361 5.63902C17.6737 3.95178 15.3861 3.0027 13 3ZM17.2426 8.81799L13.5304 12.5303C13.4607 12.6 13.378 12.6552 13.2871 12.6929C13.1961 12.7306 13.0985 12.75 13 12.75C12.9015 12.75 12.804 12.7306 12.713 12.6929C12.622 12.6553 12.5393 12.6 12.4697 12.5304C12.4 12.4607 12.3448 12.378 12.3071 12.2871C12.2694 12.1961 12.25 12.0985 12.25 12C12.25 11.9015 12.2694 11.804 12.3071 11.713C12.3448 11.622 12.4 11.5393 12.4696 11.4697L16.182 7.75736C16.2516 7.68771 16.3343 7.63246 16.4253 7.59477C16.5163 7.55708 16.6138 7.53767 16.7123 7.53767C16.8108 7.53767 16.9083 7.55707 16.9993 7.59476C17.0903 7.63244 17.173 7.68769 17.2426 7.75733C17.3123 7.82697 17.3675 7.90965 17.4052 8.00065C17.4429 8.09164 17.4623 8.18916 17.4623 8.28766C17.4623 8.38615 17.4429 8.48368 17.4052 8.57467C17.3675 8.66567 17.3123 8.74835 17.2427 8.81799H17.2426Z" fill="black"/>
</g>
<defs>
<filter id="filter0_d_101_241" x="0" y="0" width="26" height="29" filterUnits="userSpaceOnUse" color-interpolation-filters="sRGB">
<feFlood flood-opacity="0" result="BackgroundImageFix"/>
<feColorMatrix in="SourceAlpha" type="matrix" values="0 0 0 0 0 0 0 0 0 0 0 0 0 0 0 0 0 0 127 0" result="hardAlpha"/>
<feOffset dy="4"/>
<feGaussianBlur stdDeviation="2"/>
<feComposite in2="hardAlpha" operator="out"/>
<feColorMatrix type="matrix" values="0 0 0 0 0 0 0 0 0 0 0 0 0 0 0 0 0 0 0.25 0"/>
<feBlend mode="normal" in2="BackgroundImageFix" result="effect1_dropShadow_101_241"/>
<feBlend mode="normal" in="SourceGraphic" in2="effect1_dropShadow_101_241" result="shape"/>
</filter>
</defs>
</svg>
